<svg width="29" height="35" viewBox="0 0 29 35" fill="none" xmlns="http://www.w3.org/2000/svg">
<path d="M23.6056 20.7172C23.1836 19.6999 22.3592 18.8561 21.1322 18.1862C23.0344 17.7873 24.1612 16.5401 24.5135 14.4443C24.647 13.6859 24.6165 12.989 24.4219 12.3524C24.2271 11.7157 23.8837 11.1531 23.39 10.664C22.8969 10.1747 22.3312 9.7505 21.6947 9.39117C21.058 9.03179 20.3071 8.69254 19.4425 8.37372L20.5928 4.1351L18.0028 3.43221L16.8845 7.55307C16.436 7.43135 15.749 7.25693 14.8235 7.02987L15.9509 2.87538L13.3606 2.1724L12.2103 6.41102C11.8371 6.32182 11.2918 6.17997 10.5742 5.98522L7.01305 5.00058L6.26444 7.75909L8.13131 8.26573C8.98353 8.497 9.37903 9.01376 9.31789 9.8157L8.00782 14.6431C8.12011 14.6736 8.20815 14.7036 8.27245 14.7331L8.00322 14.6601L6.16832 21.4214C5.92356 21.9688 5.52077 22.1667 4.96004 22.0145L3.09329 21.5079L1.73645 24.4445L5.10046 25.3574C5.31355 25.4153 5.62095 25.5017 6.02342 25.6164C6.42549 25.7316 6.72736 25.8165 6.92925 25.8713L5.7653 30.1603L8.35608 30.8634L9.50635 26.6248C9.97406 26.7641 10.6565 26.9552 11.5536 27.1986L10.4079 31.4202L12.998 32.1231L14.162 27.8341C15.0938 28.0389 15.9322 28.1767 16.6775 28.246C17.4232 28.3155 18.157 28.3073 18.8787 28.2201C19.6004 28.1332 20.2332 27.9525 20.7769 27.6787C21.3208 27.4053 21.8176 27.0041 22.2684 26.4763C22.7183 25.9481 23.0909 25.2968 23.3852 24.5217C23.9545 23.0032 24.0277 21.7348 23.6056 20.7172ZM14.0523 10.0707C14.1309 10.092 14.3531 10.1493 14.7191 10.2425C15.0852 10.3357 15.3894 10.4123 15.632 10.472C15.8746 10.5319 16.196 10.6342 16.5963 10.779C16.9964 10.9237 17.329 11.0622 17.5941 11.1942C17.8591 11.3262 18.1426 11.5025 18.4437 11.7227C18.7455 11.9429 18.9718 12.173 19.1232 12.4127C19.275 12.6525 19.382 12.9345 19.4443 13.2584C19.5071 13.5824 19.4882 13.9294 19.3878 14.2993C19.3025 14.6133 19.1745 14.8857 19.0037 15.1164C18.8331 15.3469 18.6228 15.5216 18.374 15.6407C18.1252 15.7598 17.8762 15.855 17.6282 15.926C17.3803 15.9971 17.08 16.027 16.728 16.0157C16.3761 16.0045 16.0706 15.9878 15.812 15.9657C15.553 15.9436 15.2364 15.8909 14.8617 15.8072C14.487 15.7234 14.2035 15.6588 14.0115 15.6126C13.8193 15.5664 13.5587 15.4957 13.2293 15.4003C12.8998 15.305 12.7074 15.2496 12.6512 15.2343L14.0525 10.0707L14.0524 10.0706L14.0523 10.0707ZM18.0169 23.4443C17.8401 23.6734 17.642 23.8605 17.4222 24.0057C17.2022 24.1503 16.9349 24.2585 16.6208 24.3296C16.3067 24.4011 16.0082 24.4462 15.7262 24.466C15.4437 24.4861 15.1112 24.4797 14.7288 24.4484C14.3456 24.4167 14.0134 24.3774 13.7308 24.331C13.4485 24.2845 13.1146 24.2179 12.7286 24.1314C12.3431 24.0444 12.0434 23.9723 11.8304 23.9145C11.6173 23.8567 11.349 23.7806 11.0253 23.6868C10.7014 23.5933 10.4949 23.5342 10.4051 23.5098L11.948 17.8245C12.0376 17.8488 12.3054 17.9156 12.7515 18.0244C13.1977 18.1334 13.5605 18.2262 13.8409 18.3023C14.1212 18.3784 14.5037 18.4999 14.9881 18.6678C15.4721 18.835 15.8734 18.9978 16.1918 19.1565C16.5098 19.3151 16.8487 19.5183 17.2089 19.7667C17.5689 20.0148 17.845 20.2733 18.037 20.5421C18.2289 20.8113 18.3663 21.125 18.4492 21.4847C18.5326 21.8443 18.5193 22.2261 18.4097 22.6298C18.3243 22.9441 18.1936 23.2152 18.0169 23.4443Z" fill="black"/>
</svg>
